<svg xmlns="http://www.w3.org/2000/svg" viewBox="0 0 512 512">
  <defs>
    <linearGradient id="bg" x1="0" y1="0" x2="1" y2="1">
      <stop offset="0" stop-color="#101b3d"/>
      <stop offset="1" stop-color="#0a0f1e"/>
    </linearGradient>
    <linearGradient id="gold" x1="0" y1="0" x2="0" y2="1">
      <stop offset="0" stop-color="#f4cd6e"/>
      <stop offset="1" stop-color="#dfa02e"/>
    </linearGradient>
  </defs>
  <rect width="512" height="512" rx="112" fill="url(#bg)"/>
  <circle cx="256" cy="256" r="168" fill="none" stroke="#2b3a66" stroke-width="14"/>
  <circle cx="256" cy="256" r="168" fill="none" stroke="url(#gold)" stroke-width="6" opacity="0.5"/>
  <g fill="#3d4f85">
    <rect x="252" y="72" width="8" height="26" rx="4"/>
    <rect x="252" y="414" width="8" height="26" rx="4"/>
    <rect x="72" y="252" width="26" height="8" rx="4"/>
    <rect x="414" y="252" width="26" height="8" rx="4"/>
  </g>
  <path d="M256 118 L294 256 L256 394 L218 256 Z" fill="url(#gold)"/>
  <path d="M256 118 L294 256 L256 256 Z" fill="#fff" opacity="0.28"/>
  <path d="M118 256 L256 218 L394 256 L256 294 Z" fill="#5b8cff" opacity="0.85"/>
  <path d="M118 256 L256 218 L256 256 Z" fill="#fff" opacity="0.22"/>
  <circle cx="256" cy="256" r="26" fill="#0a0f1e" stroke="url(#gold)" stroke-width="8"/>
</svg>
